<svg width="21" height="20" viewBox="0 0 21 20" fill="none" xmlns="http://www.w3.org/2000/svg">
<path d="M13.75 10.8125L17.9937 13.6416C18.0549 13.6823 18.1259 13.7057 18.1993 13.7092C18.2727 13.7127 18.3457 13.6962 18.4105 13.6615C18.4753 13.6269 18.5294 13.5752 18.5672 13.5122C18.605 13.4492 18.625 13.3771 18.625 13.3036V6.64435C18.625 6.57286 18.6062 6.50264 18.5704 6.44077C18.5346 6.3789 18.4831 6.32757 18.4211 6.29196C18.3591 6.25636 18.2889 6.23774 18.2174 6.23798C18.1459 6.23822 18.0757 6.25732 18.014 6.29335L13.75 8.78122" stroke="white" stroke-width="1.41667" stroke-linecap="round" stroke-linejoin="round"/>
<path d="M12.125 5.125H4C3.10254 5.125 2.375 5.85254 2.375 6.75V13.25C2.375 14.1475 3.10254 14.875 4 14.875H12.125C13.0225 14.875 13.75 14.1475 13.75 13.25V6.75C13.75 5.85254 13.0225 5.125 12.125 5.125Z" stroke="white" stroke-width="1.41667" stroke-linecap="round" stroke-linejoin="round"/>
</svg>
