<svg width="24" height="24" viewBox="0 0 24 24" fill="none" xmlns="http://www.w3.org/2000/svg">
<path d="M0 12C0 5.37258 5.37258 0 12 0V0C18.6274 0 24 5.37258 24 12V12C24 18.6274 18.6274 24 12 24V24C5.37258 24 0 18.6274 0 12V12Z" fill="#FF7B53"/>
<path fill-rule="evenodd" clip-rule="evenodd" d="M19.3333 7.4581C19.3333 6.3957 18.4855 5.47583 17.3648 5.51487C16.6037 5.54138 15.5936 5.62065 14.8088 5.8556C14.126 6.06001 13.3661 6.45609 12.7819 6.79414L13.0046 7.1788L12.7819 6.79414C12.2855 7.08145 11.6675 7.09521 11.1665 6.83026C10.5007 6.47824 9.61364 6.05467 8.83675 5.84966C8.1797 5.67628 7.35597 5.59439 6.69582 5.55382C5.5543 5.48366 4.66666 6.41262 4.66666 7.50117V14.9317C4.66666 16.0503 5.5709 16.9167 6.63495 16.9832C7.27175 17.023 7.97762 17.0992 8.49656 17.2361C9.13851 17.4055 9.94254 17.7859 10.6013 18.1371C11.4725 18.6015 12.5274 18.6015 13.3986 18.1371C14.0574 17.7859 14.8615 17.4055 15.5034 17.2361C16.0224 17.0992 16.7282 17.023 17.365 16.9832C18.4291 16.9167 19.3333 16.0503 19.3333 14.9317V7.4581ZM17.4112 6.8474C17.7195 6.83666 18 7.09056 18 7.4581V14.9317C18 15.2944 17.6962 15.6266 17.2818 15.6525C16.626 15.6935 15.8132 15.7754 15.1632 15.9469C14.3632 16.158 13.4453 16.6013 12.7714 16.9605C12.737 16.9788 12.7021 16.9959 12.6667 17.0116V8.26409C12.9387 8.19669 13.2027 8.09117 13.4498 7.94814C14.0143 7.62143 14.6638 7.29081 15.1912 7.13293C15.8022 6.95 16.6675 6.8733 17.4112 6.8474ZM11.3333 8.29192C11.061 8.23612 10.7948 8.142 10.5432 8.00895C9.89406 7.66571 9.11862 7.30302 8.49656 7.13887C7.9716 7.00034 7.25571 6.92408 6.61403 6.88464C6.29408 6.86498 5.99999 7.12549 5.99999 7.50117V14.9317C5.99999 15.2944 6.30381 15.6266 6.71818 15.6525C7.37394 15.6935 8.18675 15.7754 8.83675 15.9469C9.63674 16.158 10.5547 16.6013 11.2285 16.9605C11.2629 16.9788 11.2979 16.9959 11.3333 17.0116V8.29192ZM6.68656 10.0074C6.77586 9.6502 7.13782 9.43302 7.49501 9.52232L10.1617 10.189C10.5189 10.2783 10.7361 10.6402 10.6468 10.9974C10.5575 11.3546 10.1955 11.5718 9.8383 11.4825L7.17163 10.8158C6.81444 10.7265 6.59726 10.3646 6.68656 10.0074ZM16.505 9.52232C16.8622 9.43302 17.2241 9.6502 17.3134 10.0074C17.4027 10.3646 17.1855 10.7265 16.8283 10.8158L14.1617 11.4825C13.8045 11.5718 13.4425 11.3546 13.3532 10.9974C13.2639 10.6402 13.4811 10.2783 13.8383 10.189L16.505 9.52232ZM6.68656 12.6741C6.77586 12.3169 7.13782 12.0997 7.49501 12.189L10.1617 12.8557C10.5189 12.945 10.7361 13.3069 10.6468 13.6641C10.5575 14.0213 10.1955 14.2385 9.8383 14.1492L7.17163 13.4825C6.81444 13.3932 6.59726 13.0313 6.68656 12.6741ZM16.505 12.189C16.8622 12.0997 17.2241 12.3169 17.3134 12.6741C17.4027 13.0313 17.1855 13.3932 16.8283 13.4825L14.1617 14.1492C13.8045 14.2385 13.4425 14.0213 13.3532 13.6641C13.2639 13.3069 13.4811 12.945 13.8383 12.8557L16.505 12.189Z" fill="white"/>
</svg>
