<svg width="24" height="24" viewBox="0 0 24 24" fill="none" xmlns="http://www.w3.org/2000/svg">
<path d="M0 12C0 5.37258 5.37258 0 12 0V0C18.6274 0 24 5.37258 24 12V12C24 18.6274 18.6274 24 12 24V24C5.37258 24 0 18.6274 0 12V12Z" fill="#FF6486"/>
<path d="M14.8148 8.48132L12 5.6665L9.18518 8.48132" stroke="white" stroke-width="1.13333" stroke-linecap="round" stroke-linejoin="round"/>
<path d="M6.37036 11.2964V16.926C6.37036 17.2993 6.51864 17.6573 6.78258 17.9212C7.04652 18.1851 7.4045 18.3334 7.77777 18.3334H16.2222C16.5955 18.3334 16.9535 18.1851 17.2174 17.9212C17.4813 17.6573 17.6296 17.2993 17.6296 16.926V11.2964" stroke="white" stroke-width="1.13333" stroke-linecap="round" stroke-linejoin="round"/>
<path d="M12 5.6665V14.8147" stroke="white" stroke-width="1.13333" stroke-linecap="round" stroke-linejoin="round"/>
</svg>
