<svg width="21" height="20" viewBox="0 0 21 20" fill="none" xmlns="http://www.w3.org/2000/svg">
<path d="M12.8236 3.85082C12.6384 3.62853 12.3639 3.5 12.0746 3.5H8.92542C8.63606 3.5 8.36164 3.62853 8.1764 3.85082L6.4375 5.9375H4C3.56902 5.9375 3.1557 6.1087 2.85095 6.41345C2.5462 6.7182 2.375 7.13152 2.375 7.5625V14.875C2.375 15.306 2.5462 15.7193 2.85095 16.024C3.1557 16.3288 3.56902 16.5 4 16.5H17C17.431 16.5 17.8443 16.3288 18.149 16.024C18.4538 15.7193 18.625 15.306 18.625 14.875V7.5625C18.625 7.13152 18.4538 6.7182 18.149 6.41345C17.8443 6.1087 17.431 5.9375 17 5.9375H14.5625L12.8236 3.85082Z" stroke="white" stroke-width="1.41667" stroke-linecap="round" stroke-linejoin="round"/>
<path d="M10.5 13.25C11.8462 13.25 12.9375 12.1587 12.9375 10.8125C12.9375 9.46631 11.8462 8.375 10.5 8.375C9.15381 8.375 8.0625 9.46631 8.0625 10.8125C8.0625 12.1587 9.15381 13.25 10.5 13.25Z" stroke="white" stroke-width="1.41667" stroke-linecap="round" stroke-linejoin="round"/>
</svg>
