<svg width="24" height="24" viewBox="0 0 24 24" fill="none" xmlns="http://www.w3.org/2000/svg">
<path d="M0 12C0 5.37258 5.37258 0 12 0V0C18.6274 0 24 5.37258 24 12V12C24 18.6274 18.6274 24 12 24V24C5.37258 24 0 18.6274 0 12V12Z" fill="#FEA101"/>
<g clip-path="url(#clip0_2380_2080)">
<path fill-rule="evenodd" clip-rule="evenodd" d="M14.1481 6.88039C15.418 6.45711 16.2985 6.16547 16.9453 6.05042C16.9707 6.04591 16.9953 6.04173 17.0193 6.03788L8.03095 15.0263C8.02653 14.9572 8.02789 14.8601 8.0406 14.7169C8.06141 14.4826 8.10653 14.18 8.17299 13.7373L8.17939 13.6948C8.20886 13.4996 8.2359 13.3205 8.22876 13.1414C8.21482 12.7919 8.10326 12.4532 7.90672 12.1638C7.806 12.0155 7.67782 11.8876 7.53815 11.7481L7.53814 11.7481L7.50773 11.7178L7.31931 11.5293C6.78896 10.999 6.43764 10.6459 6.21592 10.3599C5.99642 10.0768 5.99839 9.97518 6.00038 9.9472C6.0045 9.88944 6.01789 9.83273 6.04004 9.77923C6.05077 9.7533 6.09444 9.66157 6.41741 9.50648C6.74362 9.34983 7.21578 9.19109 7.92733 8.95392L14.1481 6.88039ZM8.95018 15.9926C9.02037 16.0013 9.12569 16.0039 9.29703 15.9911C9.53162 15.9736 9.83481 15.9327 10.2785 15.8725L10.3261 15.866L10.37 15.8601L10.37 15.8601C10.5718 15.8325 10.7571 15.8072 10.9421 15.8183C11.2743 15.8384 11.5952 15.9466 11.8717 16.1318C12.0256 16.2349 12.1577 16.3673 12.3016 16.5114L12.3329 16.5428L12.5005 16.7103C13.0166 17.2265 13.3603 17.5684 13.6386 17.7854C13.9145 18.0007 14.0142 18.0011 14.0407 17.9998C14.1066 17.9966 14.1713 17.9813 14.2316 17.9548C14.2559 17.9441 14.3449 17.8991 14.4954 17.5832C14.6472 17.2646 14.8017 16.8051 15.0325 16.1126L17.1196 9.85167C17.5429 8.58182 17.8345 7.70137 17.9496 7.05462C17.9541 7.02928 17.9583 7.00465 17.9621 6.98071L8.95018 15.9926ZM18.8128 5.18714C18.2423 4.61664 17.4733 4.60223 16.7118 4.73769C15.957 4.87196 14.9833 5.19655 13.7819 5.59703L13.7819 5.59703L13.7265 5.61548L7.5057 7.68901L7.46319 7.70318C6.80552 7.92236 6.25178 8.10691 5.84023 8.30454C5.41659 8.50798 5.00797 8.78634 4.80807 9.26929C4.7312 9.45499 4.68473 9.65185 4.67043 9.85233C4.63324 10.3737 4.87423 10.8054 5.16216 11.1768C5.44188 11.5376 5.85462 11.9503 6.34484 12.4405L6.37652 12.4722L6.56494 12.6606C6.7531 12.8487 6.78334 12.8829 6.80371 12.9129C6.86033 12.9963 6.89247 13.0938 6.89648 13.1945C6.89793 13.2308 6.89392 13.2762 6.85443 13.5394L6.85133 13.56L6.85133 13.56C6.78873 13.9771 6.7373 14.3197 6.7125 14.599C6.68713 14.8846 6.68362 15.1581 6.74513 15.4258C6.95474 16.338 7.6608 17.054 8.56995 17.2764C8.83677 17.3417 9.11024 17.3421 9.39625 17.3207C9.67588 17.2998 10.0192 17.2532 10.4371 17.1965L10.4578 17.1937L10.5054 17.1873C10.7775 17.1503 10.8243 17.147 10.8618 17.1492C10.9575 17.155 11.0499 17.1862 11.1296 17.2396C11.1608 17.2604 11.196 17.2915 11.3902 17.4856L11.5577 17.6531L11.5885 17.6839C12.0656 18.1611 12.4674 18.5628 12.8185 18.8367C13.1795 19.1183 13.5985 19.3565 14.1061 19.3316C14.3347 19.3203 14.5592 19.2673 14.7687 19.1752L14.5224 18.6154L14.7687 19.1752C15.2338 18.9705 15.5021 18.5701 15.6991 18.1567C15.8906 17.7547 16.0703 17.2157 16.2837 16.5756L16.2837 16.5756L16.2974 16.5342L18.3845 10.2733L18.4029 10.218C18.8034 9.01664 19.128 8.04291 19.2623 7.28815C19.3978 6.52666 19.3834 5.75765 18.8128 5.18714Z" fill="white"/>
</g>
<defs>
<clipPath id="clip0_2380_2080">
<rect width="16" height="16" fill="white" transform="translate(4 4)"/>
</clipPath>
</defs>
</svg>
