<svg width="20" height="20" viewBox="0 0 20 20" fill="none" xmlns="http://www.w3.org/2000/svg">
<path d="M5.16669 9.99654C5.1713 9.83513 5.20358 9.68757 5.26353 9.55383C5.32348 9.4201 5.41571 9.29097 5.54022 9.16646L12.4714 2.45666C12.6697 2.25837 12.9141 2.15922 13.2046 2.15922C13.3983 2.15922 13.5735 2.20533 13.7303 2.29756C13.8917 2.3898 14.0185 2.51431 14.1108 2.6711C14.2076 2.82789 14.256 3.00313 14.256 3.19682C14.256 3.48273 14.1477 3.73406 13.9309 3.9508L7.66384 9.98962L13.9309 16.0354C14.1477 16.2567 14.256 16.508 14.256 16.7893C14.256 16.9876 14.2076 17.1652 14.1108 17.322C14.0185 17.4788 13.8917 17.6033 13.7303 17.6955C13.5735 17.7924 13.3983 17.8408 13.2046 17.8408C12.9141 17.8408 12.6697 17.7393 12.4714 17.5364L5.54022 10.8266C5.4111 10.7021 5.31656 10.573 5.25661 10.4392C5.19666 10.3009 5.16669 10.1533 5.16669 9.99654Z" fill="white"/>
</svg>
