<svg width="24" height="24" viewBox="0 0 24 24" fill="none" xmlns="http://www.w3.org/2000/svg">
<path d="M0 12C0 5.37258 5.37258 0 12 0V0C18.6274 0 24 5.37258 24 12V12C24 18.6274 18.6274 24 12 24V24C5.37258 24 0 18.6274 0 12V12Z" fill="#643FD1"/>
<path fill-rule="evenodd" clip-rule="evenodd" d="M10.4714 5.52876C10.211 5.26841 9.78894 5.26841 9.52859 5.52876C9.26824 5.78911 9.26824 6.21122 9.52859 6.47157L9.73054 6.67352C6.91022 6.81386 4.66666 9.145 4.66666 12.0002C4.66666 14.9457 7.05469 17.3335 10.0002 17.3335H10.3333C10.7015 17.3335 11 17.035 11 16.6668C11 16.2986 10.7015 16.0002 10.3333 16.0002H10.0002C7.791 16.0002 5.99999 14.2093 5.99999 12.0002C5.99999 9.79102 7.79085 8.00016 9.99999 8.00016H11.3333C11.603 8.00016 11.8461 7.83773 11.9492 7.58862C12.0524 7.3395 11.9954 7.05276 11.8047 6.86209L10.4714 5.52876ZM13.6667 6.66683C13.2985 6.66683 13 6.96531 13 7.3335C13 7.70169 13.2985 8.00016 13.6667 8.00016H14C16.2091 8.00016 18 9.79102 18 12.0002C18 14.2093 16.2091 16.0002 14 16.0002H12.6667C12.397 16.0002 12.1539 16.1626 12.0507 16.4117C11.9475 16.6608 12.0046 16.9476 12.1953 17.1382L13.5286 18.4716C13.7889 18.7319 14.211 18.7319 14.4714 18.4716C14.7317 18.2112 14.7317 17.7891 14.4714 17.5288L14.2694 17.3268C17.0898 17.1865 19.3333 14.8553 19.3333 12.0002C19.3333 9.05464 16.9455 6.66683 14 6.66683H13.6667Z" fill="white"/>
</svg>
