<svg width="20" height="20" viewBox="0 0 20 20" fill="none" xmlns="http://www.w3.org/2000/svg">
<path d="M8.45267 17.2217C8.34527 17.365 8.22444 17.4522 8.09018 17.4836C7.96039 17.5149 7.8418 17.5015 7.73439 17.4433C7.62699 17.3896 7.55091 17.3001 7.50615 17.1748C7.46588 17.0495 7.4793 16.8995 7.54643 16.725L9.54688 11.5091H5.75408C5.61087 11.5091 5.49452 11.4665 5.40501 11.3815C5.3155 11.292 5.27075 11.1824 5.27075 11.0526C5.27075 10.9138 5.32893 10.7706 5.44529 10.623L11.5473 2.78226C11.6547 2.63905 11.7733 2.55179 11.9031 2.52046C12.0374 2.48466 12.1582 2.49584 12.2656 2.55402C12.373 2.60773 12.4469 2.69947 12.4871 2.82925C12.5319 2.95456 12.5207 3.10224 12.4536 3.27231L10.4531 8.49496H14.2459C14.3891 8.49496 14.5055 8.53747 14.595 8.6225C14.6845 8.70753 14.7293 8.81494 14.7293 8.94472C14.7293 9.08345 14.6711 9.22666 14.5547 9.37435L8.45267 17.2217ZM8.84874 15.416L8.66078 15.3153L13.0443 9.49518H8.90244L11.1446 4.58804L11.3325 4.68873L6.94898 10.5088H11.0976L8.84874 15.416Z" fill="white"/>
</svg>
