<svg width="81" height="80" viewBox="0 0 81 80" fill="none" xmlns="http://www.w3.org/2000/svg">
<path d="M54.0646 33.1727C58.4962 33.1725 62.2724 33.1724 65.2867 33.5135C65.7984 33.5714 66.3083 33.6409 66.8145 33.7258C68.5879 34.0235 70.3157 34.5111 71.914 35.3544V32.5192C71.9141 29.4895 71.9142 26.9759 71.6298 24.9718C71.3297 22.8567 70.6753 20.9819 69.1115 19.4415C68.8564 19.1902 68.5871 18.9517 68.3049 18.7268C66.5989 17.3674 64.5541 16.8114 62.239 16.5536C60.0086 16.3051 57.1989 16.3052 53.7549 16.3052L52.579 16.3052C49.3053 16.3052 48.1317 16.2862 47.0686 16.0177C46.4442 15.86 45.845 15.6398 45.2825 15.3626C44.3351 14.8955 43.5094 14.192 41.1907 12.1377L39.6104 10.7376C38.9469 10.1496 38.494 9.74828 38.0087 9.39181C35.9265 7.86258 33.3911 6.93768 30.7366 6.71776C30.1185 6.66655 29.4877 6.6666 28.5436 6.66668L28.1555 6.66666C26.02 6.6663 24.6106 6.66606 23.3868 6.87063C18.0373 7.76485 13.7115 11.5047 12.6578 16.4524C12.4181 17.5781 12.4185 18.8678 12.419 20.7284L12.4191 35.3544C14.0174 34.5111 15.7452 34.0235 17.5187 33.7258C18.0249 33.6409 18.5348 33.5714 19.0465 33.5135C22.0607 33.1724 25.8369 33.1725 30.2685 33.1727H54.0646Z" fill="url(#paint0_linear_152_643)"/>
<path fill-rule="evenodd" clip-rule="evenodd" d="M11.693 42.596C9.65907 45.734 10.4985 50.0972 12.1774 58.8236C13.386 65.1056 13.9903 68.2465 16.0841 70.3308C16.6273 70.8716 17.2351 71.351 17.8953 71.7594C20.4398 73.3333 23.818 73.3333 30.5742 73.3333H53.7591C60.5154 73.3333 63.8935 73.3333 66.438 71.7594C67.0982 71.351 67.706 70.8716 68.2492 70.3308C70.343 68.2465 70.9473 65.1056 72.1559 58.8236C73.8348 50.0972 74.6743 45.734 72.6403 42.596C72.1212 41.7951 71.4811 41.0703 70.7403 40.4445C67.8371 37.9919 63.1444 37.9919 53.7591 37.9919H30.5742C21.1889 37.9919 16.4963 37.9919 13.5931 40.4445C12.8522 41.0703 12.2121 41.7951 11.693 42.596ZM32.8173 57.269C32.8173 55.9382 33.9588 54.8594 35.367 54.8594H48.9659C50.3741 54.8594 51.5157 55.9382 51.5157 57.269C51.5157 58.5998 50.3741 59.6787 48.9659 59.6787H35.367C33.9588 59.6787 32.8173 58.5998 32.8173 57.269Z" fill="url(#paint1_linear_152_643)"/>
<defs>
<linearGradient id="paint0_linear_152_643" x1="18.4164" y1="70.9999" x2="73.4939" y2="15.8222" gradientUnits="userSpaceOnUse">
<stop stop-color="#515151"/>
<stop offset="0.523508" stop-color="white"/>
<stop offset="0.99274" stop-color="#515151"/>
</linearGradient>
<linearGradient id="paint1_linear_152_643" x1="18.4164" y1="70.9999" x2="73.4939" y2="15.8222" gradientUnits="userSpaceOnUse">
<stop stop-color="#515151"/>
<stop offset="0.523508" stop-color="white"/>
<stop offset="0.99274" stop-color="#515151"/>
</linearGradient>
</defs>
</svg>
