<svg width="16" height="16" viewBox="0 0 16 16" fill="none" xmlns="http://www.w3.org/2000/svg">
<path d="M8.51852 4.2964C8.8 4.12356 8.98765 3.80998 8.98765 3.45689C8.98765 2.91121 8.54568 2.46924 8 2.46924C7.45432 2.46924 7.01234 2.91121 7.01234 3.45689C7.01234 3.81245 7.2 4.12356 7.48148 4.2964L6.06666 7.12603C5.84197 7.57541 5.25926 7.70381 4.86666 7.39023L2.66666 5.62973C2.79012 5.4643 2.86419 5.25936 2.86419 5.03714C2.86419 4.49146 2.42222 4.04949 1.87654 4.04949C1.33086 4.04949 0.888885 4.49146 0.888885 5.03714C0.888885 5.58282 1.33086 6.02479 1.87654 6.02479H1.89382L3.02222 12.2322C3.15802 12.9828 3.81234 13.531 4.57777 13.531H11.4222C12.1852 13.531 12.8395 12.9853 12.9778 12.2322L14.1062 6.02479H14.1235C14.6691 6.02479 15.1111 5.58282 15.1111 5.03714C15.1111 4.49146 14.6691 4.04949 14.1235 4.04949C13.5778 4.04949 13.1358 4.49146 13.1358 5.03714C13.1358 5.25936 13.2099 5.4643 13.3333 5.62973L11.1333 7.39023C10.7407 7.70381 10.158 7.57541 9.93333 7.12603L8.51852 4.2964Z" fill="white"/>
</svg>
