<svg width="20" height="20" viewBox="0 0 20 20" fill="none" xmlns="http://www.w3.org/2000/svg">
<path fill-rule="evenodd" clip-rule="evenodd" d="M17.0152 4.31805C17.1028 4.2306 17.1723 4.12675 17.2197 4.01244C17.2671 3.89813 17.2916 3.77559 17.2917 3.65183C17.2918 3.52807 17.2675 3.40551 17.2202 3.29114C17.1729 3.17677 17.1035 3.07284 17.0161 2.98527C16.9286 2.8977 16.8247 2.82822 16.7104 2.78079C16.5961 2.73336 16.4736 2.70891 16.3498 2.70883C16.2261 2.70876 16.1035 2.73306 15.9891 2.78035C15.8748 2.82764 15.7708 2.89699 15.6833 2.98445L9.99989 8.66783L4.31815 2.98445C4.1413 2.8076 3.90144 2.70825 3.65134 2.70825C3.40124 2.70825 3.16139 2.8076 2.98454 2.98445C2.80769 3.1613 2.70834 3.40115 2.70834 3.65125C2.70834 3.90135 2.80769 4.14121 2.98454 4.31805L8.66792 9.9998L2.98454 15.6815C2.89698 15.7691 2.82752 15.8731 2.78013 15.9875C2.73273 16.1019 2.70834 16.2245 2.70834 16.3483C2.70834 16.4722 2.73273 16.5948 2.78013 16.7092C2.82752 16.8236 2.89698 16.9276 2.98454 17.0151C3.16139 17.192 3.40124 17.2913 3.65134 17.2913C3.77518 17.2913 3.8978 17.267 4.01221 17.2196C4.12662 17.1722 4.23058 17.1027 4.31815 17.0151L9.99989 11.3318L15.6833 17.0151C15.8601 17.1918 16.0999 17.2909 16.3498 17.2908C16.5998 17.2906 16.8394 17.1912 17.0161 17.0143C17.1927 16.8375 17.2918 16.5977 17.2917 16.3478C17.2915 16.0978 17.1921 15.8582 17.0152 15.6815L11.3319 9.9998L17.0152 4.31805Z" fill="white"/>
</svg>
