<svg width="24" height="24" viewBox="0 0 24 24" fill="none" xmlns="http://www.w3.org/2000/svg">
<path d="M12.198 3H11.802C11.3246 3 10.8668 3.18964 10.5292 3.52721C10.1916 3.86477 10.002 4.32261 10.002 4.8V4.962C10.0017 5.27765 9.91833 5.58767 9.76036 5.86095C9.60239 6.13424 9.37534 6.36117 9.10198 6.519L8.71498 6.744C8.44134 6.90198 8.13094 6.98515 7.81498 6.98515C7.49901 6.98515 7.18861 6.90198 6.91498 6.744L6.77998 6.672C6.36694 6.43374 5.87623 6.3691 5.41558 6.49228C4.95493 6.61546 4.56197 6.91638 4.32298 7.329L4.12498 7.671C3.88671 8.08404 3.82208 8.57475 3.94525 9.0354C4.06843 9.49605 4.36936 9.889 4.78198 10.128L4.91698 10.218C5.18903 10.3751 5.41523 10.6006 5.57312 10.8721C5.73101 11.1437 5.81508 11.4519 5.81698 11.766V12.225C5.81824 12.5422 5.73566 12.8541 5.57762 13.1291C5.41957 13.4041 5.19167 13.6324 4.91698 13.791L4.78198 13.872C4.36936 14.111 4.06843 14.5039 3.94525 14.9646C3.82208 15.4253 3.88671 15.916 4.12498 16.329L4.32298 16.671C4.56197 17.0836 4.95493 17.3845 5.41558 17.5077C5.87623 17.6309 6.36694 17.5663 6.77998 17.328L6.91498 17.256C7.18861 17.098 7.49901 17.0148 7.81498 17.0148C8.13094 17.0148 8.44134 17.098 8.71498 17.256L9.10198 17.481C9.37534 17.6388 9.60239 17.8658 9.76036 18.139C9.91833 18.4123 10.0017 18.7223 10.002 19.038V19.2C10.002 19.6774 10.1916 20.1352 10.5292 20.4728C10.8668 20.8104 11.3246 21 11.802 21H12.198C12.6754 21 13.1332 20.8104 13.4708 20.4728C13.8083 20.1352 13.998 19.6774 13.998 19.2V19.038C13.9983 18.7223 14.0816 18.4123 14.2396 18.139C14.3976 17.8658 14.6246 17.6388 14.898 17.481L15.285 17.256C15.5586 17.098 15.869 17.0148 16.185 17.0148C16.5009 17.0148 16.8113 17.098 17.085 17.256L17.22 17.328C17.633 17.5663 18.1237 17.6309 18.5844 17.5077C19.045 17.3845 19.438 17.0836 19.677 16.671L19.875 16.32C20.1132 15.907 20.1779 15.4163 20.0547 14.9556C19.9315 14.4949 19.6306 14.102 19.218 13.863L19.083 13.791C18.8083 13.6324 18.5804 13.4041 18.4223 13.1291C18.2643 12.8541 18.1817 12.5422 18.183 12.225V11.775C18.1817 11.4578 18.2643 11.1459 18.4223 10.8709C18.5804 10.5959 18.8083 10.3676 19.083 10.209L19.218 10.128C19.6306 9.889 19.9315 9.49605 20.0547 9.0354C20.1779 8.57475 20.1132 8.08404 19.875 7.671L19.677 7.329C19.438 6.91638 19.045 6.61546 18.5844 6.49228C18.1237 6.3691 17.633 6.43374 17.22 6.672L17.085 6.744C16.8113 6.90198 16.5009 6.98515 16.185 6.98515C15.869 6.98515 15.5586 6.90198 15.285 6.744L14.898 6.519C14.6246 6.36117 14.3976 6.13424 14.2396 5.86095C14.0816 5.58767 13.9983 5.27765 13.998 4.962V4.8C13.998 4.32261 13.8083 3.86477 13.4708 3.52721C13.1332 3.18964 12.6754 3 12.198 3Z" stroke="#8C8C8C" stroke-width="1.7" stroke-linecap="round" stroke-linejoin="round"/>
<path d="M12 14.7C13.4912 14.7 14.7 13.4912 14.7 12C14.7 10.5089 13.4912 9.30005 12 9.30005C10.5088 9.30005 9.30002 10.5089 9.30002 12C9.30002 13.4912 10.5088 14.7 12 14.7Z" stroke="#8C8C8C" stroke-width="1.7" stroke-linecap="round" stroke-linejoin="round"/>
</svg>
