<svg width="24" height="24" viewBox="0 0 24 24" fill="none" xmlns="http://www.w3.org/2000/svg">
<path d="M6.58587 13.1643C6.29164 13.1643 6.02483 13.0944 5.78545 12.9548C5.54608 12.8102 5.35408 12.6182 5.20945 12.3788C5.06982 12.1394 5 11.8751 5 11.5859C5 11.2916 5.06982 11.0248 5.20945 10.7855C5.35408 10.5461 5.54608 10.3566 5.78545 10.2169C6.02483 10.0723 6.29164 10 6.58587 10C6.87512 10 7.13943 10.0723 7.37881 10.2169C7.61818 10.3566 7.80769 10.5461 7.94732 10.7855C8.09195 11.0248 8.16426 11.2916 8.16426 11.5859C8.16426 11.8751 8.09195 12.1394 7.94732 12.3788C7.80769 12.6182 7.61818 12.8102 7.37881 12.9548C7.13943 13.0944 6.87512 13.1643 6.58587 13.1643ZM12.1963 13.1643C11.907 13.1643 11.6427 13.0944 11.4033 12.9548C11.1639 12.8102 10.9719 12.6182 10.8273 12.3788C10.6877 12.1394 10.6179 11.8751 10.6179 11.5859C10.6179 11.2916 10.6877 11.0248 10.8273 10.7855C10.9719 10.5461 11.1639 10.3566 11.4033 10.2169C11.6427 10.0723 11.907 10 12.1963 10C12.4855 10 12.7498 10.0723 12.9892 10.2169C13.2336 10.3566 13.4256 10.5461 13.5652 10.7855C13.7098 11.0248 13.7821 11.2916 13.7821 11.5859C13.7821 11.8751 13.7098 12.1394 13.5652 12.3788C13.4256 12.6182 13.2336 12.8102 12.9892 12.9548C12.7498 13.0944 12.4855 13.1643 12.1963 13.1643ZM17.8141 13.1643C17.5199 13.1643 17.2531 13.0944 17.0137 12.9548C16.7743 12.8102 16.5823 12.6182 16.4377 12.3788C16.2981 12.1394 16.2283 11.8751 16.2283 11.5859C16.2283 11.2916 16.2981 11.0248 16.4377 10.7855C16.5823 10.5461 16.7743 10.3566 17.0137 10.2169C17.2531 10.0723 17.5199 10 17.8141 10C18.1034 10 18.3677 10.0723 18.6071 10.2169C18.8464 10.3566 19.0384 10.5461 19.1831 10.7855C19.3277 11.0248 19.4 11.2916 19.4 11.5859C19.4 11.8751 19.3277 12.1394 19.1831 12.3788C19.0384 12.6182 18.8464 12.8102 18.6071 12.9548C18.3677 13.0944 18.1034 13.1643 17.8141 13.1643Z" fill="white"/>
</svg>
