<svg width="24" height="24" viewBox="0 0 24 24" fill="none" xmlns="http://www.w3.org/2000/svg">
<path d="M0 12C0 5.37258 5.37258 0 12 0V0C18.6274 0 24 5.37258 24 12V12C24 18.6274 18.6274 24 12 24V24C5.37258 24 0 18.6274 0 12V12Z" fill="#5BCE8A"/>
<path d="M17.3333 12.6666C17.3333 16 15 17.6666 12.2267 18.6333C12.0814 18.6825 11.9237 18.6802 11.78 18.6266C8.99999 17.6666 6.66666 16 6.66666 12.6666V7.99997C6.66666 7.82316 6.73689 7.65359 6.86192 7.52857C6.98694 7.40355 7.15651 7.33331 7.33332 7.33331C8.66666 7.33331 10.3333 6.53331 11.4933 5.51997C11.6346 5.39931 11.8142 5.33301 12 5.33301C12.1858 5.33301 12.3654 5.39931 12.5067 5.51997C13.6733 6.53997 15.3333 7.33331 16.6667 7.33331C16.8435 7.33331 17.013 7.40355 17.1381 7.52857C17.2631 7.65359 17.3333 7.82316 17.3333 7.99997V12.6666Z" stroke="white" stroke-width="1.13333" stroke-linecap="round" stroke-linejoin="round"/>
<path d="M10 12.0003L11.3333 13.3337L14 10.667" stroke="white" stroke-width="1.13333" stroke-linecap="round" stroke-linejoin="round"/>
</svg>
