<svg width="40" height="40" viewBox="0 0 40 40" fill="none" xmlns="http://www.w3.org/2000/svg">
<path fill-rule="evenodd" clip-rule="evenodd" d="M16.2963 35H23.7037C28.9054 35 31.5063 35 33.3746 33.7743C34.1834 33.2437 34.8779 32.5619 35.4183 31.7678C36.6667 29.9334 36.6667 27.3799 36.6667 22.2727C36.6667 17.1656 36.6667 14.612 35.4183 12.7777C34.8779 11.9836 34.1834 11.3017 33.3746 10.7711C32.1741 9.98356 30.6711 9.70205 28.37 9.60143C27.2719 9.60143 26.3265 8.78447 26.1111 7.72727C25.7881 6.14148 24.3699 5 22.7228 5H17.2772C15.6301 5 14.2119 6.14148 13.8889 7.72727C13.6735 8.78447 12.7281 9.60143 11.63 9.60143C9.32889 9.70205 7.82592 9.98356 6.62541 10.7711C5.81659 11.3017 5.12214 11.9836 4.58171 12.7777C3.33334 14.612 3.33334 17.1656 3.33334 22.2727C3.33334 27.3799 3.33334 29.9334 4.58171 31.7678C5.12214 32.5619 5.81659 33.2437 6.62541 33.7743C8.49373 35 11.0946 35 16.2963 35ZM20 15.4545C16.1647 15.4545 13.0556 18.5071 13.0556 22.2727C13.0556 26.0383 16.1647 29.0909 20 29.0909C23.8353 29.0909 26.9444 26.0383 26.9444 22.2727C26.9444 18.5071 23.8353 15.4545 20 15.4545ZM20 18.1818C17.6988 18.1818 15.8333 20.0134 15.8333 22.2727C15.8333 24.5321 17.6988 26.3636 20 26.3636C22.3012 26.3636 24.1667 24.5321 24.1667 22.2727C24.1667 20.0134 22.3012 18.1818 20 18.1818ZM27.8704 16.8182C27.8704 16.0651 28.4922 15.4545 29.2593 15.4545H31.1111C31.8782 15.4545 32.5 16.0651 32.5 16.8182C32.5 17.5713 31.8782 18.1818 31.1111 18.1818H29.2593C28.4922 18.1818 27.8704 17.5713 27.8704 16.8182Z" fill="url(#paint0_linear_79_289)"/>
<defs>
<linearGradient id="paint0_linear_79_289" x1="7.49984" y1="33.95" x2="31.9768" y2="5.26993" gradientUnits="userSpaceOnUse">
<stop stop-color="#515151"/>
<stop offset="0.523508" stop-color="white"/>
<stop offset="0.99274" stop-color="#515151"/>
</linearGradient>
</defs>
</svg>
