<svg width="24" height="24" viewBox="0 0 24 24" fill="none" xmlns="http://www.w3.org/2000/svg">
<path d="M12 8V12L14.5 14.5" stroke="#8C8C8C" stroke-width="1.7" stroke-linecap="round" stroke-linejoin="round"/>
<path d="M5.60423 5.60426L5.00319 5.00322V5.00322L5.60423 5.60426ZM4.33785 6.87064L3.48786 6.87491C3.49021 7.34102 3.86748 7.71829 4.33358 7.72063L4.33785 6.87064ZM6.87913 7.73342C7.34857 7.73578 7.73103 7.35714 7.73339 6.88771C7.73575 6.41827 7.35711 6.0358 6.88768 6.03345L6.87913 7.73342ZM5.17505 4.32082C5.17269 3.85138 4.79022 3.47274 4.32079 3.4751C3.85135 3.47746 3.47271 3.85993 3.47507 4.32936L5.17505 4.32082ZM3.92577 10.7986C3.98952 10.3335 3.66417 9.90482 3.19908 9.84107C2.73398 9.77732 2.30527 10.1027 2.24152 10.5678L3.92577 10.7986ZM18.933 5.06718C15.0745 1.20861 8.83783 1.16858 5.00319 5.00322L6.20527 6.2053C9.36466 3.04592 14.5249 3.06316 17.731 6.26926L18.933 5.06718ZM5.06715 18.9331C8.92572 22.7916 15.1624 22.8317 18.997 18.997L17.7949 17.7949C14.6355 20.9543 9.47533 20.9371 6.26923 17.731L5.06715 18.9331ZM18.997 18.997C22.8316 15.1624 22.7916 8.92575 18.933 5.06718L17.731 6.26926C20.9371 9.47536 20.9543 14.6356 17.7949 17.7949L18.997 18.997ZM5.00319 5.00322L3.73681 6.2696L4.93889 7.47168L6.20527 6.2053L5.00319 5.00322ZM4.33358 7.72063L6.87913 7.73342L6.88768 6.03345L4.34212 6.02065L4.33358 7.72063ZM5.18784 6.86637L5.17505 4.32082L3.47507 4.32936L3.48786 6.87491L5.18784 6.86637ZM2.24152 10.5678C1.83599 13.5263 2.78041 16.6463 5.06715 18.9331L6.26923 17.731C4.37154 15.8333 3.5899 13.249 3.92577 10.7986L2.24152 10.5678Z" fill="#8C8C8C"/>
</svg>
