<svg width="24" height="24" viewBox="0 0 24 24" fill="none" xmlns="http://www.w3.org/2000/svg">
<path d="M16 12C16 12.1022 15.9782 12.1989 15.9346 12.2903C15.8964 12.3763 15.8391 12.457 15.7628 12.5323L9.28425 18.7823C9.13701 18.9274 8.95706 19 8.74438 19C8.60804 19 8.48262 18.9677 8.3681 18.9032C8.25358 18.8387 8.1636 18.75 8.09816 18.6371C8.03272 18.5296 8 18.4059 8 18.2661C8 18.0672 8.07089 17.8925 8.21268 17.7419L14.1677 12L8.21268 6.25806C8.07089 6.10753 8 5.9328 8 5.73387C8 5.59409 8.03272 5.47043 8.09816 5.3629C8.1636 5.25 8.25358 5.16129 8.3681 5.09677C8.48262 5.03226 8.60804 5 8.74438 5C8.95706 5 9.13701 5.06989 9.28425 5.20968L15.7628 11.4677C15.8391 11.543 15.8964 11.6263 15.9346 11.7177C15.9782 11.8038 16 11.8978 16 12Z" fill="#8C8C8C"/>
</svg>
