<svg width="24" height="24" viewBox="0 0 24 24" fill="none" xmlns="http://www.w3.org/2000/svg">
<path d="M6.32896 13.2631C6.32896 13.0966 6.39877 12.9248 6.5384 12.7475L8.28644 10.5001L9.22894 11.4425L8.34283 12.6106H10.3889L12.3786 14.5842L10.6225 18.4992L10.397 18.3783L12.8781 15.0917L13.7803 15.9939L10.1473 20.6661C10.0184 20.8379 9.87338 20.9427 9.71227 20.9803C9.55653 21.0179 9.41421 21.0017 9.28533 20.9319C9.15644 20.8675 9.06514 20.7601 9.01144 20.6097C8.9631 20.4593 8.97922 20.2794 9.05977 20.07L11.4603 13.8109H6.90895C6.7371 13.8109 6.59747 13.7598 6.49007 13.6578C6.38266 13.5504 6.32896 13.4188 6.32896 13.2631ZM10.2198 8.01091L13.8609 3.33871C13.9897 3.16686 14.1321 3.06214 14.2878 3.02455C14.4489 2.98159 14.5939 2.99501 14.7228 3.06483C14.8517 3.12927 14.9403 3.23936 14.9886 3.3951C15.0423 3.54547 15.0289 3.72269 14.9483 3.92677L12.5478 10.1939H17.0992C17.271 10.1939 17.4106 10.245 17.518 10.347C17.6255 10.449 17.6792 10.5779 17.6792 10.7337C17.6792 10.9001 17.6093 11.072 17.4697 11.2492L15.7136 13.5048L14.7711 12.5623L15.6572 11.3942H13.595L11.6214 9.42062L13.3775 5.50564L13.6031 5.62648L11.122 8.91312L10.2198 8.01091ZM17.6389 18.5153L5.47507 6.35953C5.35693 6.24138 5.29785 6.09638 5.29785 5.92453C5.29785 5.74731 5.35693 5.59963 5.47507 5.48148C5.59322 5.35796 5.7409 5.29889 5.91813 5.30426C6.09535 5.30426 6.24303 5.36333 6.36118 5.48148L18.5169 17.6372C18.6404 17.7607 18.7022 17.9084 18.7022 18.0803C18.7022 18.2575 18.6404 18.4025 18.5169 18.5153C18.3988 18.6388 18.2538 18.7006 18.0819 18.7006C17.9101 18.7006 17.7624 18.6388 17.6389 18.5153Z" fill="white"/>
</svg>
