<svg width="24" height="24" viewBox="0 0 24 24" fill="none" xmlns="http://www.w3.org/2000/svg">
<path d="M0 12C0 5.37258 5.37258 0 12 0V0C18.6274 0 24 5.37258 24 12V12C24 18.6274 18.6274 24 12 24V24C5.37258 24 0 18.6274 0 12V12Z" fill="#20ABC6"/>
<g clip-path="url(#clip0_2380_2101)">
<path d="M10.1021 7.60526C10.9466 6.09042 11.3688 5.33301 12 5.33301C12.6313 5.33301 13.0535 6.09042 13.8979 7.60526L14.1164 7.99716C14.3563 8.42763 14.4763 8.64287 14.6634 8.78488C14.8505 8.92689 15.0834 8.97961 15.5494 9.08504L15.9737 9.18103C17.6134 9.55204 18.4333 9.73755 18.6284 10.3648C18.8235 10.9921 18.2645 11.6457 17.1466 12.953L16.8574 13.2912C16.5397 13.6626 16.3809 13.8484 16.3094 14.0782C16.238 14.3079 16.262 14.5557 16.31 15.0514L16.3537 15.5026C16.5228 17.2467 16.6073 18.1188 16.0966 18.5065C15.5859 18.8942 14.8182 18.5407 13.2829 17.8338L12.8857 17.6509C12.4494 17.45 12.2312 17.3496 12 17.3496C11.7688 17.3496 11.5506 17.45 11.1143 17.6509L10.7171 17.8338C9.18179 18.5407 8.41413 18.8942 7.90344 18.5065C7.39276 18.1188 7.47726 17.2467 7.64627 15.5026L7.69 15.0514C7.73803 14.5557 7.76204 14.3079 7.69059 14.0782C7.61913 13.8484 7.46029 13.6626 7.14262 13.2912L6.85341 12.953C5.73551 11.6457 5.17656 10.9921 5.37162 10.3648C5.56669 9.73755 6.38658 9.55204 8.02637 9.18103L8.4506 9.08504C8.91658 8.97961 9.14957 8.92689 9.33664 8.78488C9.52371 8.64287 9.64369 8.42763 9.88365 7.99716L10.1021 7.60526Z" stroke="white" stroke-width="1.33333"/>
</g>
<defs>
<clipPath id="clip0_2380_2101">
<rect width="16" height="16" fill="white" transform="translate(4 4)"/>
</clipPath>
</defs>
</svg>
