<svg width="81" height="80" viewBox="0 0 81 80" fill="none" xmlns="http://www.w3.org/2000/svg">
<path fill-rule="evenodd" clip-rule="evenodd" d="M47.9075 70H47.9075C58.3109 70 63.5126 70 67.2493 67.5486C68.8669 66.4874 70.2558 65.1238 71.3367 63.5356C73.8334 59.8669 73.8334 54.7598 73.8334 44.5455V44.5454V44.5454C73.8334 34.3312 73.8334 29.224 71.3367 25.5553C70.6907 24.6061 69.9346 23.7371 69.0855 22.9649L72.2636 19.7868C73.4352 18.6152 73.4352 16.7157 72.2636 15.5442C71.092 14.3726 69.1925 14.3726 68.021 15.5442L11.6062 71.959C10.4346 73.1305 10.4346 75.03 11.6062 76.2016C12.7777 77.3732 14.6772 77.3732 15.8488 76.2016L22.2463 69.8041C25.0958 70 28.6117 70 33.0926 70H33.0927H47.9075ZM34.9857 57.0647L53.1478 38.9026C53.9449 40.6222 54.389 42.5329 54.389 44.5454C54.389 52.0766 48.1707 58.1818 40.5001 58.1818C38.5407 58.1818 36.6761 57.7835 34.9857 57.0647ZM56.7882 35.2622C57.2944 35.9306 58.105 36.3636 59.0186 36.3636H62.7223C64.2564 36.3636 65.5001 35.1426 65.5001 33.6364C65.5001 32.1301 64.2564 30.9091 62.7223 30.9091H61.1413L56.7882 35.2622ZM43.3236 31.1911L55.6191 18.8956C54.1644 18.3266 53.0417 17.0227 52.7223 15.4545C52.0762 12.283 49.2399 10 45.9456 10H35.0545C31.7603 10 28.9239 12.283 28.2779 15.4545C27.8471 17.5689 25.9563 19.2029 23.7601 19.2029C19.1579 19.4041 16.1519 19.9671 13.7509 21.5423C12.1333 22.6035 10.7444 23.9671 9.66349 25.5553C7.16675 29.224 7.16675 34.3312 7.16675 44.5454C7.16675 54.7597 7.16675 59.8669 9.66349 63.5356C9.84028 63.7953 10.0253 64.0491 10.2182 64.2965L26.9523 47.5624C26.729 46.5919 26.6112 45.5822 26.6112 44.5454C26.6112 37.0143 32.8295 30.9091 40.5001 30.9091C41.4676 30.9091 42.4119 31.0062 43.3236 31.1911Z" fill="url(#paint0_linear_150_661)"/>
<defs>
<linearGradient id="paint0_linear_150_661" x1="15.4998" y1="74.7324" x2="70.8581" y2="16.7145" gradientUnits="userSpaceOnUse">
<stop stop-color="#515151"/>
<stop offset="0.523508" stop-color="white"/>
<stop offset="0.99274" stop-color="#515151"/>
</linearGradient>
</defs>
</svg>
